HIERARCHY
ROOT joint_Root
{
	OFFSET 0.0 0.0 0.0
	CHANNELS 6 Xposition Yposition Zposition Zrotation Xrotation Yrotation 
	JOINT Hips
	{
		OFFSET -0.726466 93.3139 -2.00062
		CHANNELS 6 Xposition Yposition Zposition Zrotation Xrotation Yrotation 
		JOINT Spine
		{
			OFFSET 15.7357 0.0 0.0
			CHANNELS 6 Xposition Yposition Zposition Zrotation Xrotation Yrotation 
			JOINT Chest
			{
				OFFSET 8.98455 -0.406207 0.0
				CHANNELS 6 Xposition Yposition Zposition Zrotation Xrotation Yrotation 
				JOINT Neck
				{
					OFFSET 16.3773 0.0 0.0
					CHANNELS 6 Xposition Yposition Zposition Zrotation Xrotation Yrotation 
					JOINT Head
					{
						OFFSET 6.45672 0.0 0.0
						CHANNELS 6 Xposition Yposition Zposition Zrotation Xrotation Yrotation 
						End Site
						{
							OFFSET 0.0 0.0 0.0
						}
					}
				}
				JOINT Shoulder_L
				{
					OFFSET 12.9942 -0.242716 4.98039
					CHANNELS 6 Xposition Yposition Zposition Zrotation Xrotation Yrotation 
					JOINT UpperArm_L
					{
						OFFSET 5.34809 0.0 0.0
						CHANNELS 6 Xposition Yposition Zposition Zrotation Xrotation Yrotation 
						JOINT LowerArm_L
						{
							OFFSET 24.3286 1.87007e-05 0.0
							CHANNELS 6 Xposition Yposition Zposition Zrotation Xrotation Yrotation 
							JOINT Hand_L
							{
								OFFSET 22.2916 0.0 0.0
								CHANNELS 6 Xposition Yposition Zposition Zrotation Xrotation Yrotation 
								End Site
								{
									OFFSET 0.0 0.0 0.0
								}
							}
						}
					}
				}
				JOINT Shoulder_R
				{
					OFFSET 12.9945 -0.242716 -4.98039
					CHANNELS 6 Xposition Yposition Zposition Zrotation Xrotation Yrotation 
					JOINT UpperArm_R
					{
						OFFSET -5.34813 0.0 0.0
						CHANNELS 6 Xposition Yposition Zposition Zrotation Xrotation Yrotation 
						JOINT LowerArm_R
						{
							OFFSET -24.3289 0.000322201 0.0
							CHANNELS 6 Xposition Yposition Zposition Zrotation Xrotation Yrotation 
							JOINT Hand_R
							{
								OFFSET -22.2915 -0.000108084 0.0
								CHANNELS 6 Xposition Yposition Zposition Zrotation Xrotation Yrotation 
								End Site
								{
									OFFSET 0.0 0.0 0.0
								}
							}
						}
					}
				}
			}
		}
		JOINT UpperLeg_L
		{
			OFFSET -2.19248 -6.46944 0.0
			CHANNELS 6 Xposition Yposition Zposition Zrotation Xrotation Yrotation 
			JOINT LowerLeg_L
			{
				OFFSET 39.0811 0.0 -1.23785e-05
				CHANNELS 6 Xposition Yposition Zposition Zrotation Xrotation Yrotation 
				JOINT Foot_L
				{
					OFFSET 40.9854 0.0 -1.26872e-05
					CHANNELS 6 Xposition Yposition Zposition Zrotation Xrotation Yrotation 
					JOINT Toes_L
					{
						OFFSET 11.7543 0.0 0.0
						CHANNELS 6 Xposition Yposition Zposition Zrotation Xrotation Yrotation 
						End Site
						{
							OFFSET 0.0 0.0 0.0
						}
					}
				}
			}
		}
		JOINT UpperLeg_R
		{
			OFFSET -2.19251 6.46944 0.0
			CHANNELS 6 Xposition Yposition Zposition Zrotation Xrotation Yrotation 
			JOINT LowerLeg_R
			{
				OFFSET -39.0811 -0.00228153 -0.0401928
				CHANNELS 6 Xposition Yposition Zposition Zrotation Xrotation Yrotation 
				JOINT Foot_R
				{
					OFFSET -40.9854 0.0 0.0
					CHANNELS 6 Xposition Yposition Zposition Zrotation Xrotation Yrotation 
					JOINT Toes_R
					{
						OFFSET -11.7543 0.0 0.0
						CHANNELS 6 Xposition Yposition Zposition Zrotation Xrotation Yrotation 
						End Site
						{
							OFFSET 0.0 0.0 0.0
						}
					}
				}
			}
		}
	}
}
MOTION
Frames:	4
Frame Time:	0.0333333
0.000000 0.000000 0.000000 0.000000 0.000000 -0.000000 2.189770 87.087000 -543.326000 89.142900 -15.480100 -0.678463 15.735700 0.000005 -0.000001 114.984000 79.849400 -116.734000 8.984550 -0.406207 -0.000000 10.855100 8.466130 -4.308000 16.377300 -0.000001 -0.000001 9.557230 2.760450 0.171556 6.456720 -0.000001 -0.000000 2.510940 -2.459850 -0.575109 12.994200 -0.242716 4.980390 -88.189200 -3.214780 -60.586600 5.348090 -0.000007 -0.000001 -61.699000 -3.888650 16.621600 24.328600 0.000019 0.000005 3.927820 13.101800 -16.851600 22.291600 -0.000001 0.000005 8.013830 5.393640 -2.731690 12.994500 -0.242716 -4.980390 89.689700 0.912890 -71.225900 -5.348130 -0.000001 -0.000004 -48.128200 16.540500 -47.772600 -24.328900 0.000322 -0.000009 -1.872850 -2.117280 -41.494100 -22.291500 -0.000108 -0.000004 9.323390 5.532610 -7.910360 -2.192480 -6.469440 -0.000000 -178.187000 -18.755800 -33.870000 39.081100 -0.000007 -0.000012 -0.094221 0.099711 43.379200 40.985400 -0.000006 -0.000013 -1.256000 -5.711600 -63.120500 11.754300 -0.000000 0.000003 -0.004880 -0.060312 -19.030700 -2.192510 6.469440 -0.000001 169.463000 30.209800 -170.638000 -39.081100 -0.002282 -0.040193 -0.081266 0.158871 28.027800 -40.985400 0.000008 0.000006 -10.442400 -9.249350 -78.271700 -11.754300 -0.000006 -0.000006 -0.010707 -0.108845 -21.008700
0.000000 0.000000 0.000000 0.000000 0.000000 -0.000000 2.868990 86.704900 -540.454000 90.302400 -15.328500 -0.823539 15.735700 0.000005 -0.000001 114.918000 79.790900 -117.239000 8.984550 -0.406207 -0.000000 11.017400 8.473780 -5.465210 16.377300 -0.000001 -0.000001 8.948770 2.427210 0.244301 6.456720 -0.000001 -0.000000 2.067150 -2.748860 0.022364 12.994200 -0.242716 4.980390 -88.207600 -3.232780 -60.973500 5.348090 -0.000007 -0.000001 -63.936200 -3.374350 15.679000 24.328600 0.000019 0.000005 3.877100 13.760300 -15.903500 22.291600 -0.000001 0.000005 7.273340 5.392960 -2.709800 12.994500 -0.242716 -4.980390 89.656300 1.010600 -71.215800 -5.348130 -0.000001 -0.000004 -49.757400 18.752600 -45.572200 -24.328900 0.000322 -0.000009 -2.306500 -2.495690 -42.755400 -22.291500 -0.000108 -0.000004 9.022830 5.530370 -7.821020 -2.192480 -6.469440 -0.000000 179.920000 -19.596000 -33.894500 39.081100 -0.000007 -0.000012 -0.133002 0.128387 46.012300 40.985400 -0.000006 -0.000013 -0.730446 -4.671770 -65.427400 11.754300 -0.000000 0.000003 -0.003454 -0.045640 -18.433100 -2.192510 6.469440 -0.000001 166.990000 27.998900 -170.399000 -39.081100 -0.002282 -0.040193 -0.133989 0.242206 29.546300 -40.985400 0.000008 0.000006 -12.342700 -9.315930 -76.003100 -11.754300 -0.000006 -0.000006 -1.137710 -1.278670 -22.451200
0.000000 0.000000 0.000000 0.000000 0.000000 -0.000000 3.684610 86.505700 -537.046000 90.625700 -14.915800 -0.366906 15.735700 0.000005 -0.000001 114.136000 79.694500 -116.539000 8.984550 -0.406207 -0.000000 11.309700 8.289230 -5.632770 16.377300 -0.000001 -0.000001 8.803280 2.172420 0.099228 6.456720 -0.000001 -0.000000 1.786550 -2.756990 0.028600 12.994200 -0.242716 4.980390 -88.530800 -2.676940 -61.225800 5.348090 -0.000007 -0.000001 -65.905700 -2.169400 13.972200 24.328600 0.000019 0.000005 3.861070 14.182200 -15.400800 22.291600 -0.000001 0.000005 6.092470 5.393140 -2.716570 12.994500 -0.242716 -4.980390 89.563300 1.286610 -71.250600 -5.348130 -0.000001 -0.000004 -50.440000 21.869900 -42.976600 -24.328900 0.000322 -0.000009 -2.297350 -2.494530 -42.655400 -22.291500 -0.000108 -0.000004 8.464040 5.532970 -7.927520 -2.192480 -6.469440 -0.000000 179.343000 -19.391000 -32.210400 39.081100 -0.000007 -0.000012 -0.270465 0.242680 48.100000 40.985400 -0.000006 -0.000013 -0.520315 -4.555580 -68.027300 11.754300 -0.000000 0.000003 -0.003423 -0.045302 -18.419300 -2.192510 6.469440 -0.000001 164.140000 26.659900 -169.953000 -39.081100 -0.002282 -0.040193 -0.113841 0.179420 33.139100 -40.985400 0.000008 0.000006 -14.140400 -8.607810 -72.097900 -11.754300 -0.000006 -0.000006 -0.029151 -0.213545 -25.319500
0.000000 0.000000 0.000000 0.000000 0.000000 -0.000000 4.541150 86.604700 -533.492000 89.858400 -14.113600 -0.040932 15.735700 0.000005 -0.000001 113.205000 79.821100 -115.098000 8.984550 -0.406207 -0.000000 11.157300 7.905210 -4.563200 16.377300 -0.000001 -0.000001 8.886200 2.063950 -0.089176 6.456720 -0.000001 -0.000000 2.315560 -2.824070 -0.301879 12.994200 -0.242716 4.980390 -88.869300 -2.057260 -61.197000 5.348090 -0.000007 -0.000001 -68.322800 0.433334 11.707700 24.328600 0.000019 0.000005 3.757990 13.671600 -15.530600 22.291600 -0.000001 0.000005 5.625380 5.407350 -3.178770 12.994500 -0.242716 -4.980390 89.514700 1.435640 -71.321400 -5.348130 -0.000001 -0.000004 -50.149300 25.991800 -39.920800 -24.328900 0.000322 -0.000009 -3.032910 -3.439350 -41.442900 -22.291500 -0.000108 -0.000004 7.967130 5.536380 -8.079000 -2.192480 -6.469440 -0.000000 179.821000 -18.951100 -29.661900 39.081100 -0.000007 -0.000012 -0.388952 0.336699 49.119600 40.985400 -0.000006 -0.000013 -0.162876 -4.312030 -70.669000 11.754300 -0.000000 0.000003 -0.000977 -0.015085 -17.190300 -2.192510 6.469440 -0.000001 163.930000 23.461800 -171.405000 -39.081100 -0.002282 -0.040193 -0.020757 0.030420 38.317100 -40.985400 0.000008 0.000006 -13.933600 -11.601200 -65.360100 -11.754300 -0.000006 -0.000006 -0.070503 -0.364493 -31.667600
